<?xml version="1.0" encoding="UTF-8" standalone="no"?>
<!DOCTYPE svg PUBLIC "-//W3C//DTD SVG 1.1//EN" "http://www.w3.org/Graphics/SVG/1.1/DTD/svg11.dtd">
<svg width="100%" height="100%" viewBox="0 0 24 24" version="1.1" xmlns="http://www.w3.org/2000/svg" xmlns:xlink="http://www.w3.org/1999/xlink" xml:space="preserve" xmlns:serif="http://www.serif.com/" style="fill-rule:evenodd;clip-rule:evenodd;stroke-linejoin:round;stroke-miterlimit:2;">
    <path d="M20.5,6C17.89,6.7 14.83,7 12,7C9.17,7 6.11,6.7 3.5,6L3,8C4.86,8.5 7,8.83 9,9L9,22L11,22L11,16L13,16L13,22L15,22L15,9C17,8.83 19.14,8.5 21,8L20.5,6ZM12,6C13.1,6 14,5.1 14,4C14,2.9 13.1,2 12,2C10.9,2 10,2.9 10,4C10,5.1 10.9,6 12,6Z" style="fill:white;fill-rule:nonzero;"/>
    <rect x="0" y="0" width="24" height="24" style="fill:none;fill-rule:nonzero;"/>
</svg>
