<?xml version="1.0" encoding="UTF-8" standalone="no"?>
<!DOCTYPE svg PUBLIC "-//W3C//DTD SVG 1.1//EN" "http://www.w3.org/Graphics/SVG/1.1/DTD/svg11.dtd">
<svg width="100%" height="100%" viewBox="0 0 24 24" version="1.1" xmlns="http://www.w3.org/2000/svg" xmlns:xlink="http://www.w3.org/1999/xlink" xml:space="preserve" xmlns:serif="http://www.serif.com/" style="fill-rule:evenodd;clip-rule:evenodd;stroke-linejoin:round;stroke-miterlimit:2;">
    <rect x="0" y="0" width="24" height="24" style="fill:none;fill-rule:nonzero;"/>
    <g transform="matrix(0.909091,0,0,0.5,1.09091,1.5)">
        <path d="M21,3L3,3C1.9,3 1,3.9 1,5L1,19C1,20.1 1.9,21 3,21L21,21C22.1,21 23,20.1 23,19L23,5C23,3.9 22.1,3 21,3ZM21,19.01L3,19.01L3,4.99L21,4.99L21,19.01ZM8,16L10.5,16L12,17.5L13.5,16L16,16L16,13.5L17.5,12L16,10.5L16,8L13.5,8L12,6.5L10.5,8L8,8L8,10.5L6.5,12L8,13.5L8,16ZM12,9C13.66,9 15,10.34 15,12C15,13.66 13.66,15 12,15L12,9Z" style="fill:white;fill-rule:nonzero;"/>
    </g>
    <g transform="matrix(1,0,0,0.642857,-2.55351e-15,8.78571)">
        <path d="M20,5L4,5C2.9,5 2.01,5.9 2.01,7L2,17C2,18.1 2.9,19 4,19L20,19C21.1,19 22,18.1 22,17L22,7C22,5.9 21.1,5 20,5ZM11,8L13,8L13,10L11,10L11,8ZM11,11L13,11L13,13L11,13L11,11ZM8,8L10,8L10,10L8,10L8,8ZM8,11L10,11L10,13L8,13L8,11ZM7,13L5,13L5,11L7,11L7,13ZM7,10L5,10L5,8L7,8L7,10ZM16,17L8,17L8,15L16,15L16,17ZM16,13L14,13L14,11L16,11L16,13ZM16,10L14,10L14,8L16,8L16,10ZM19,13L17,13L17,11L19,11L19,13ZM19,10L17,10L17,8L19,8L19,10Z" style="fill:white;fill-rule:nonzero;"/>
    </g>
</svg>
