<?xml version="1.0" encoding="UTF-8" standalone="no"?>
<!DOCTYPE svg PUBLIC "-//W3C//DTD SVG 1.1//EN" "http://www.w3.org/Graphics/SVG/1.1/DTD/svg11.dtd">
<svg width="100%" height="100%" viewBox="0 0 24 24" version="1.1" xmlns="http://www.w3.org/2000/svg" xmlns:xlink="http://www.w3.org/1999/xlink" xml:space="preserve" xmlns:serif="http://www.serif.com/" style="fill-rule:evenodd;clip-rule:evenodd;stroke-linejoin:round;stroke-miterlimit:2;">
    <rect x="0" y="0" width="24" height="24" style="fill:none;fill-rule:nonzero;"/>
    <g transform="matrix(0.909091,0,0,0.5,1.09091,1.5)">
        <path d="M21,3L3,3C1.9,3 1,3.9 1,5L1,19C1,20.1 1.9,21 3,21L21,21C22.1,21 23,20.1 23,19L23,5C23,3.9 22.1,3 21,3ZM21,19.01L3,19.01L3,4.99L21,4.99L21,19.01Z" style="fill:white;fill-rule:nonzero;"/>
    </g>
    <g transform="matrix(1,0,0,0.642857,-6.10623e-15,8.78571)">
        <path d="M20,5L4,5C2.9,5 2.01,5.9 2.01,7L2,17C2,18.1 2.9,19 4,19L20,19C21.1,19 22,18.1 22,17L22,7C22,5.9 21.1,5 20,5ZM11,8L13,8L13,10L11,10L11,8ZM11,11L13,11L13,13L11,13L11,11ZM8,8L10,8L10,10L8,10L8,8ZM8,11L10,11L10,13L8,13L8,11ZM7,13L5,13L5,11L7,11L7,13ZM7,10L5,10L5,8L7,8L7,10ZM16,17L8,17L8,15L16,15L16,17ZM16,13L14,13L14,11L16,11L16,13ZM16,10L14,10L14,8L16,8L16,10ZM19,13L17,13L17,11L19,11L19,13ZM19,10L17,10L17,8L19,8L19,10Z" style="fill:white;fill-rule:nonzero;"/>
    </g>
    <g transform="matrix(0.27615,0,0,0.27615,8.6862,4.2012)">
        <path d="M19.14,12.94C19.18,12.64 19.2,12.33 19.2,12C19.2,11.68 19.18,11.36 19.13,11.06L21.16,9.48C21.34,9.34 21.39,9.07 21.28,8.87L19.36,5.55C19.24,5.33 18.99,5.26 18.77,5.33L16.38,6.29C15.88,5.91 15.35,5.59 14.76,5.35L14.4,2.81C14.36,2.57 14.16,2.4 13.92,2.4L10.08,2.4C9.84,2.4 9.65,2.57 9.61,2.81L9.25,5.35C8.66,5.59 8.12,5.92 7.63,6.29L5.24,5.33C5.02,5.25 4.77,5.33 4.65,5.55L2.74,8.87C2.62,9.08 2.66,9.34 2.86,9.48L4.89,11.06C4.84,11.36 4.8,11.69 4.8,12C4.8,12.31 4.82,12.64 4.87,12.94L2.84,14.52C2.66,14.66 2.61,14.93 2.72,15.13L4.64,18.45C4.76,18.67 5.01,18.74 5.23,18.67L7.62,17.71C8.12,18.09 8.65,18.41 9.24,18.65L9.6,21.19C9.65,21.43 9.84,21.6 10.08,21.6L13.92,21.6C14.16,21.6 14.36,21.43 14.39,21.19L14.75,18.65C15.34,18.41 15.88,18.09 16.37,17.71L18.76,18.67C18.98,18.75 19.23,18.67 19.35,18.45L21.27,15.13C21.39,14.91 21.34,14.66 21.15,14.52L19.14,12.94ZM12,15.6C10.02,15.6 8.4,13.98 8.4,12C8.4,10.02 10.02,8.4 12,8.4C13.98,8.4 15.6,10.02 15.6,12C15.6,13.98 13.98,15.6 12,15.6Z" style="fill:white;fill-rule:nonzero;"/>
    </g>
</svg>
