<?xml version="1.0" encoding="UTF-8" standalone="no"?>
<!DOCTYPE svg PUBLIC "-//W3C//DTD SVG 1.1//EN" "http://www.w3.org/Graphics/SVG/1.1/DTD/svg11.dtd">
<svg width="100%" height="100%" viewBox="0 0 24 24" version="1.1" xmlns="http://www.w3.org/2000/svg" xmlns:xlink="http://www.w3.org/1999/xlink" xml:space="preserve" xmlns:serif="http://www.serif.com/" style="fill-rule:evenodd;clip-rule:evenodd;stroke-linejoin:round;stroke-miterlimit:2;">
    <path d="M8.69,4L12,0.69L15.31,4L20,4L20,8.69L23.31,12L20,15.31L20,20L15.31,20L12,23.31L8.69,20L4,20L4,15.31L0.75,12L4,8.69L4,4L8.69,4ZM13.89,8.69L15.31,7L8.69,7L8.69,16L10.59,16L10.59,11.598L13.89,11.598L12.89,10L10.59,10L10.59,8.69L13.89,8.69ZM15.75,12.5L14.5,12.5L13.204,14L12.5,12.5L11.25,12.5L12.5,14.5L11.25,16L12.5,16.022L13.204,15L14,16.022L15.31,16L14,14.5L15.75,12.5Z" style="fill:white;fill-rule:nonzero;"/>
</svg>
