<?xml version="1.0" encoding="UTF-8" standalone="no"?>
<!DOCTYPE svg PUBLIC "-//W3C//DTD SVG 1.1//EN" "http://www.w3.org/Graphics/SVG/1.1/DTD/svg11.dtd">
<svg width="100%" height="100%" viewBox="0 0 24 24" version="1.1" xmlns="http://www.w3.org/2000/svg" xmlns:xlink="http://www.w3.org/1999/xlink" xml:space="preserve" xmlns:serif="http://www.serif.com/" style="fill-rule:evenodd;clip-rule:evenodd;stroke-linejoin:round;stroke-miterlimit:2;">
    <path d="M1.49,12.906L10.557,12.906C10.557,12.906 20.925,5.484 21.075,5.462C22.009,5.323 22.509,5.994 22.509,5.994L13.114,12.906L19.566,12.906L19.557,13.915L19.557,14.915C19.557,16.015 18.657,16.915 17.557,16.915L3.557,16.915C2.457,16.915 1.557,16.015 1.557,14.915L1.49,12.906ZM4.613,15.34L3.613,15.34L3.613,16.34L4.613,16.34L4.613,15.34ZM8.613,15.34L7.613,15.34L7.613,16.34L8.613,16.34L8.613,15.34ZM6.613,15.34L5.613,15.34L5.613,16.34L6.613,16.34L6.613,15.34ZM12.557,15.396L15.557,15.396L15.557,14.396L12.557,14.396L12.557,15.396ZM4.613,13.34L3.613,13.34L3.613,14.34L4.613,14.34L4.613,13.34ZM6.613,13.34L5.613,13.34L5.613,14.34L6.613,14.34L6.613,13.34ZM8.613,13.34L7.613,13.34L7.613,14.34L8.613,14.34L8.613,13.34Z" style="fill:white;fill-rule:nonzero;"/>
    <g transform="matrix(-1,0,0,1,24,0)">
        <rect x="0" y="0" width="24" height="24" style="fill:none;fill-rule:nonzero;"/>
    </g>
</svg>
